<?xml version="1.0" encoding="utf-8"?>
<!-- Generator: Adobe Illustrator 18.1.1, SVG Export Plug-In . SVG Version: 6.00 Build 0)  -->
<svg version="1.0" id="Layer_1" xmlns="http://www.w3.org/2000/svg" xmlns:xlink="http://www.w3.org/1999/xlink" x="0px" y="0px"
	 width="86px" height="122px" viewBox="0 0 86 122" enable-background="new 0 0 86 122" xml:space="preserve">
<g>
	<path d="M11.8,101.9V91.3h2.4v8.5h4.2v2.1H11.8z"/>
	<path d="M27.6,98.8c0,1.6-1.1,3.2-4.1,3.2s-4.1-1.6-4.1-3.2v-4.4c0-1.6,1.1-3.2,4.1-3.2s4.1,1.6,4.1,3.2V98.8z M25.2,94.6
		c0-0.8-0.5-1.3-1.7-1.3s-1.7,0.5-1.7,1.3v4c0,0.8,0.5,1.3,1.7,1.3s1.7-0.5,1.7-1.3V94.6z"/>
	<path d="M33,102.1c-2.6,0-3.9-1.3-3.9-3.2v-4.4c0-2,1.3-3.2,3.9-3.2c1.2,0,2.5,0.2,3.4,0.3l-0.3,2.1c-0.9-0.1-2.3-0.3-3.1-0.3
		c-1.2,0-1.5,0.6-1.5,1.4v3.6c0,0.8,0.3,1.5,1.5,1.5c0.5,0,0.8,0,1.4-0.1v-3.2h2.2v5C35.5,101.9,34.3,102.1,33,102.1z"/>
	<path d="M38.5,98.4v-1.9h4.1v1.9H38.5z"/>
	<path d="M44.4,101.9V91.3h2.4v10.6H44.4z"/>
	<path d="M51.2,94.9v7h-2.3V91.3h2.9l3.5,7.3v-7.3h2.3v10.6h-2.9L51.2,94.9z"/>
</g>
<g>
	<path d="M16,112.8h-1.8v3.2h-2.4v-10.6h4.3c2.6,0,3.5,1,3.5,3v1.4C19.7,111.8,18.6,112.8,16,112.8z M17.3,108.7
		c0-0.8-0.3-1.1-1.3-1.1h-1.8v3.2H16c1,0,1.3-0.4,1.3-1.2V108.7z"/>
	<path d="M24.9,112.8h-1.4v3.3h-2.4v-10.6h4.4c2.6,0,3.5,1,3.5,3v1.3c0,1.3-0.5,2.2-1.5,2.7l2.6,3.6h-2.8L24.9,112.8z M26.7,108.7
		c0-0.8-0.3-1.1-1.3-1.1h-1.9v3.1h1.9c1,0,1.3-0.4,1.3-1.2V108.7z"/>
	<path d="M39.1,113c0,1.6-1.1,3.2-4.1,3.2c-3,0-4.1-1.6-4.1-3.2v-4.4c0-1.6,1.1-3.2,4.1-3.2c3,0,4.1,1.6,4.1,3.2V113z M36.7,108.8
		c0-0.8-0.5-1.3-1.7-1.3s-1.7,0.5-1.7,1.3v4c0,0.8,0.5,1.3,1.7,1.3s1.7-0.5,1.7-1.3V108.8z"/>
	<path d="M39.6,117.7c1.2-0.9,1.3-1.1,1.3-1.7v-10.6h2.4v11c0,1-0.8,1.9-2.3,3L39.6,117.7z"/>
	<path d="M45.3,116.1v-10.6H52v2.1h-4.3v1.9h3.9v2.1h-3.9v2.3H52v2.1H45.3z"/>
	<path d="M55.9,112.6c0,0.9,0.3,1.5,1.5,1.5c0.8,0,1.8-0.1,2.7-0.3l0.3,2.1c-1,0.2-2,0.3-3.1,0.3c-2.7,0-3.9-1.3-3.9-3.2v-4.4
		c0-1.9,1.2-3.2,3.9-3.2c1.1,0,2,0.1,3.1,0.3l-0.3,2.1c-0.9-0.2-2-0.3-2.7-0.3c-1.2,0-1.5,0.5-1.5,1.5V112.6z"/>
	<path d="M66.4,107.6v8.5H64v-8.5h-2.8v-2.1h8.1v2.1H66.4z"/>
</g>
<polygon fill="none" stroke="#1A1A17" stroke-miterlimit="10" points="30.7,79.8 83.5,69.5 73,25.1 31,5.2 2,25.1 "/>
<polyline fill="none" stroke="#1A1A17" stroke-miterlimit="10" points="83.5,69.5 41.3,61 22.4,25.9 2,25.1 "/>
<line fill="none" stroke="#1A1A17" stroke-miterlimit="10" x1="22.4" y1="25.9" x2="31" y2="5.2"/>
<line fill="none" stroke="#1A1A17" stroke-miterlimit="10" x1="41.3" y1="61" x2="31" y2="5.2"/>
<line fill="none" stroke="#1A1A17" stroke-miterlimit="10" x1="41.3" y1="61" x2="30.7" y2="78.4"/>
<line fill="none" stroke="#1A1A17" stroke-miterlimit="10" x1="30.7" y1="79.8" x2="22.4" y2="25.9"/>
<polygon fill="none" points="1.3,80.3 84.4,84 89,84 90,23.2 90,3 0,0 "/>
</svg>
